<svg width="32" height="32" viewBox="0 0 32 32" fill="none" xmlns="http://www.w3.org/2000/svg">
    <circle cx="16" cy="16" r="16" fill="#0377F1"/>
    <path fill-rule="evenodd" clip-rule="evenodd" d="M20.7286 4.10266C20.8709 4.18776 20.9811 4.32013 21.041 4.47814C21.101 4.63615 21.1072 4.81047 21.0587 4.97261L18.4392 13.7501H23.2725C23.4145 13.75 23.5534 13.7929 23.6721 13.8733C23.7908 13.9538 23.8841 14.0683 23.9404 14.2028C23.9967 14.3372 24.0136 14.4858 23.989 14.63C23.9644 14.7743 23.8993 14.908 23.8019 15.0145L12.166 27.7638C12.0534 27.8873 11.9035 27.9678 11.7409 27.9922C11.5783 28.0166 11.4124 27.9835 11.2704 27.8982C11.1283 27.813 11.0185 27.6806 10.9587 27.5228C10.899 27.3649 10.8928 27.1908 10.9413 27.0289L13.5608 18.2499H8.72754C8.5855 18.2499 8.44655 18.2071 8.32785 18.1266C8.20915 18.0462 8.11589 17.9317 8.05958 17.7972C8.00328 17.6627 7.98639 17.5142 8.011 17.3699C8.03562 17.2257 8.10066 17.092 8.1981 16.9854L19.834 4.23615C19.9465 4.11285 20.0961 4.03241 20.2585 4.0079C20.4209 3.9834 20.5866 4.01626 20.7286 4.10116V4.10266Z" fill="white"/>
</svg>
